HIERARCHY
ROOT Hips
{
	OFFSET -0.001795 -0.223333 0.028219
	CHANNELS 6 Xposition Yposition Zposition Zrotation Yrotation Xrotation 
	JOINT LeftUpLeg
	{
		OFFSET 0.069520 -0.091406 -0.006815
		CHANNELS 3 Zrotation Yrotation Xrotation
		JOINT LeftLeg
		{
			OFFSET 0.034277 -0.375199 -0.004496
			CHANNELS 3 Zrotation Yrotation Xrotation
			JOINT LeftFoot
			{
				OFFSET -0.013596 -0.397961 -0.043693
				CHANNELS 3 Zrotation Yrotation Xrotation
				JOINT LeftToe
				{
					OFFSET 0.026358 -0.055791 0.119288
					CHANNELS 3 Zrotation Yrotation Xrotation
					End Site
					{
						OFFSET 0.000000 0.000000 0.000000
					}
				}
			}
		}
	}
	JOINT RightUpLeg
	{
		OFFSET -0.067670 -0.090522 -0.004320
		CHANNELS 3 Zrotation Yrotation Xrotation
		JOINT RightLeg
		{
			OFFSET -0.038290 -0.382569 -0.008850
			CHANNELS 3 Zrotation Yrotation Xrotation
			JOINT RightFoot
			{
				OFFSET 0.015774 -0.398415 -0.042312
				CHANNELS 3 Zrotation Yrotation Xrotation
				JOINT RightToe
				{
					OFFSET -0.025372 -0.048144 0.123348
					CHANNELS 3 Zrotation Yrotation Xrotation
					End Site
					{
						OFFSET 0.000000 0.000000 0.000000
					}
				}
			}
		}
	}
	JOINT Spine
	{
		OFFSET -0.002533 0.108963 -0.026696
		CHANNELS 3 Zrotation Yrotation Xrotation
		JOINT Spine1
		{
			OFFSET 0.005487 0.135180 0.001092
			CHANNELS 3 Zrotation Yrotation Xrotation
			JOINT Spine2
			{
				OFFSET 0.001457 0.052922 0.025425
				CHANNELS 3 Zrotation Yrotation Xrotation
				JOINT Neck
				{
					OFFSET -0.002778 0.213870 -0.042857
					CHANNELS 3 Zrotation Yrotation Xrotation
					JOINT Head
					{
						OFFSET 0.005152 0.064970 0.051349
						CHANNELS 3 Zrotation Yrotation Xrotation
						End Site
						{
							OFFSET 0.000000 0.000000 0.000000
						}
					}
				}
				JOINT LeftShoulder
				{
					OFFSET 0.078845 0.121749 -0.034090
					CHANNELS 3 Zrotation Yrotation Xrotation
					JOINT LeftArm
					{
						OFFSET 0.090977 0.030469 -0.008868
						CHANNELS 3 Zrotation Yrotation Xrotation
						JOINT LeftForeArm
						{
							OFFSET 0.259612 -0.012772 -0.027456
							CHANNELS 3 Zrotation Yrotation Xrotation
							JOINT LeftHand
							{
								OFFSET 0.249234 0.008986 -0.001171
								CHANNELS 3 Zrotation Yrotation Xrotation
								End Site
								{
									OFFSET 0.000000 0.000000 0.000000
								}
							}
						}
					}
				}
				JOINT RightShoulder
				{
					OFFSET -0.081759 0.118833 -0.038615
					CHANNELS 3 Zrotation Yrotation Xrotation
					JOINT RightArm
					{
						OFFSET -0.096012 0.032551 -0.009143
						CHANNELS 3 Zrotation Yrotation Xrotation
						JOINT RightForeArm
						{
							OFFSET -0.253742 -0.013329 -0.021401
							CHANNELS 3 Zrotation Yrotation Xrotation
							JOINT RightHand
							{
								OFFSET -0.255298 0.007772 -0.005559
								CHANNELS 3 Zrotation Yrotation Xrotation
								End Site
								{
									OFFSET 0.000000 0.000000 0.000000
								}
							}
						}
					}
				}
			}
		}
	}
}
MOTION
Frames: 10
Frame Time: 0.050000
0.000000 0.986240 0.000000 -2.514526 4.149865 -3.435265 7.363629 -0.056096 2.705377 1.115211 -0.053673 -1.371992 -5.304220 0.716019 21.227694 0.000000 0.000000 0.000000 -0.062099 -0.237502 2.264490 -2.575018 0.393968 1.629426 -2.181997 -10.098183 20.339955 0.000000 0.000000 0.000000 -2.296419 -0.185603 7.571019 -1.417764 0.762132 -2.323443 -0.122834 0.039066 -5.617641 1.829528 -1.832987 3.306721 0.000000 0.000000 0.000000 13.907105 -5.109355 2.831396 3.445684 -21.905415 -1.417421 31.181125 -0.194874 -0.104004 0.000000 0.000000 0.000000 -15.514884 3.779573 2.033647 -1.867514 20.423051 -1.148725 -20.137963 -1.820071 0.818533 0.000000 0.000000 0.000000 
-0.000671 0.986322 0.000320 -2.594498 4.662120 -3.369865 6.885203 -0.035339 3.181845 1.502650 -0.018237 -2.871311 -4.411966 2.363458 22.025276 0.000000 0.000000 0.000000 -0.409577 -0.308414 3.024335 -2.518850 0.335346 0.733797 -2.764637 -10.823079 19.485258 0.000000 0.000000 0.000000 -2.434231 -0.161331 6.876609 -1.647598 0.779717 1.066682 1.757129 -1.870250 -8.411981 -2.129212 1.576605 0.400684 0.000000 0.000000 0.000000 10.691061 -2.254851 1.735719 -0.912380 -19.570927 -0.779972 28.017496 -5.177046 -0.933896 0.000000 0.000000 0.000000 -14.186599 2.268395 2.067840 1.090579 18.235201 -0.767607 -17.879448 3.278193 -0.017105 0.000000 0.000000 0.000000 
-0.001094 0.984897 0.000856 -2.573920 3.897119 -3.340530 6.756570 -0.017430 3.107192 2.067266 -0.099296 -2.199798 -4.545230 1.739845 21.234299 0.000000 0.000000 0.000000 -0.260939 -0.374605 3.640592 -2.121868 0.236606 -0.120468 -2.917799 -11.264983 19.866398 0.000000 0.000000 0.000000 -2.030257 -0.171749 6.587253 -1.187698 0.613973 -0.944060 -0.343449 -0.490821 -4.671868 -0.406242 0.323484 -0.284333 0.000000 0.000000 0.000000 9.609087 -1.544589 1.561268 -5.205922 -18.978030 -0.498692 23.847630 -5.793582 -1.015478 0.000000 0.000000 0.000000 -9.463586 0.755789 1.005855 7.019271 14.848871 -0.357849 -21.259177 6.694576 -0.486718 0.000000 0.000000 0.000000 
-0.001291 0.983860 0.001177 -2.826151 4.868437 -3.747249 6.762863 -0.010619 4.030344 2.681902 -0.101829 -3.029726 -5.044787 0.807190 20.195231 0.000000 0.000000 0.000000 -0.074909 -0.476344 4.463782 -1.628936 0.136784 -1.016828 -3.480948 -12.246641 21.858114 0.000000 0.000000 0.000000 -1.666013 -0.197196 6.621570 -1.507193 0.733302 0.345297 1.032104 -2.324453 -4.176976 -1.913001 1.570506 -1.776409 0.000000 0.000000 0.000000 4.583550 -1.025312 0.772731 -10.170088 -15.722945 -0.308921 22.163686 -8.982656 -1.328793 0.000000 0.000000 0.000000 -5.647761 0.412281 0.705922 10.373104 13.726346 -0.216188 -18.991278 6.706531 -0.508178 0.000000 0.000000 0.000000 
-0.001702 0.981259 0.000924 -2.699874 4.930807 -3.991613 7.177408 -0.037685 3.725881 2.039329 -0.099796 -2.080331 -5.350950 0.108002 19.554397 0.000000 0.000000 0.000000 0.337050 -0.512896 4.622584 -1.649512 0.123523 -1.314365 -3.577389 -12.328411 21.361826 0.000000 0.000000 0.000000 -2.175832 -0.176565 6.760740 -0.898751 0.398794 1.317859 0.623946 -1.480554 -4.540078 -1.883813 1.545279 -1.756263 0.000000 0.000000 0.000000 1.210821 -0.491538 0.295760 -15.205455 -14.245459 -0.187882 21.217115 -11.067992 -1.641056 0.000000 0.000000 0.000000 -1.188579 0.465501 0.265240 16.322244 9.697874 -0.343972 -16.777437 8.497208 -0.599654 0.000000 0.000000 0.000000 
-0.001992 0.980256 0.000254 -2.295446 5.706857 -4.316016 6.971505 -0.040543 3.595538 1.768546 -0.084913 -1.867248 -5.881547 -0.301960 20.059575 0.000000 0.000000 0.000000 -0.031759 -0.490497 4.532103 -1.354186 0.103462 -1.145190 -3.416545 -11.954797 21.430502 0.000000 0.000000 0.000000 -2.565897 -0.173640 7.252656 -0.392138 0.110136 1.993357 0.732909 -1.857711 -4.361562 -1.634623 1.483393 -3.697358 0.000000 0.000000 0.000000 -2.274100 0.148795 -0.319253 -20.936404 -12.214878 -0.317692 18.146801 -13.677358 -1.673348 0.000000 0.000000 0.000000 1.835302 0.832339 0.119331 23.146049 8.051876 -0.546307 -13.946680 7.246920 -0.350142 0.000000 0.000000 0.000000 
-0.002114 0.979184 -0.000816 -2.327017 5.393378 -4.697567 7.146818 -0.039840 3.477998 1.658155 -0.116422 -1.044584 -5.905928 -0.438057 19.945512 0.000000 0.000000 0.000000 0.007351 -0.499498 4.611795 -1.295125 0.094745 -1.180732 -3.067529 -11.409095 21.014774 0.000000 0.000000 0.000000 -2.506504 -0.196585 7.922103 -0.264979 0.033616 2.296384 0.806870 -1.131277 -3.798021 -0.841935 1.026655 -5.033523 0.000000 0.000000 0.000000 -6.303969 0.590453 -1.004151 -25.792424 -10.522408 -0.586961 16.079543 -14.401503 -1.535966 0.000000 0.000000 0.000000 5.653235 0.998936 -0.110907 29.143238 5.620792 -1.154126 -11.441084 7.482798 -0.253960 0.000000 0.000000 0.000000 
-0.001849 0.979017 -0.001723 -2.036406 4.795391 -4.594172 6.823119 -0.013915 3.363421 1.507889 -0.114216 -0.832732 -5.446509 0.092850 19.902833 0.000000 0.000000 0.000000 -0.461515 -0.406973 3.965972 -0.810666 0.069513 -0.570509 -2.514911 -10.510829 20.131595 0.000000 0.000000 0.000000 -2.251998 -0.231371 8.771026 -0.288638 0.080280 1.647808 1.038259 -0.941498 -2.849219 0.007374 0.495939 -5.898265 0.000000 0.000000 0.000000 -9.585698 1.260054 -1.684164 -30.473887 -7.571601 -1.355381 12.349640 -16.147332 -1.187212 0.000000 0.000000 0.000000 8.907493 1.269245 -0.257048 34.252429 3.979015 -1.796174 -9.019671 8.954723 -0.224982 0.000000 0.000000 0.000000 
-0.001162 0.979553 -0.001898 -1.707649 4.409403 -4.195080 6.351598 -0.005698 2.745284 1.372915 -0.121996 -0.411589 -4.892240 0.915959 20.158707 0.000000 0.000000 0.000000 -0.992845 -0.339506 3.528268 -0.796582 0.080347 -0.277780 -2.135569 -9.873200 19.535688 0.000000 0.000000 0.000000 -2.109651 -0.246472 9.141533 -0.228543 0.040558 1.867781 1.085319 -0.962590 -2.744012 -0.450413 0.885262 -6.972865 0.000000 0.000000 0.000000 -12.108556 2.413722 -2.510112 -35.610656 -4.515045 -2.397376 10.822261 -18.688790 -1.127125 0.000000 0.000000 0.000000 11.038173 1.106076 -0.529867 39.324367 2.460003 -2.497875 -8.068513 10.978725 -0.258095 0.000000 0.000000 0.000000 
0.000011 0.979490 -0.001273 -1.384614 4.038611 -3.867294 5.790352 0.008783 2.407924 1.410295 -0.112599 -0.706085 -4.440010 1.944763 21.345891 0.000000 0.000000 0.000000 -1.548167 -0.272243 3.060668 -0.694638 0.085873 0.123141 -1.809698 -9.264443 18.729566 0.000000 0.000000 0.000000 -1.909134 -0.263577 9.383697 -0.144139 -0.010544 2.079074 1.289877 -1.262014 -3.075993 -0.034538 0.574095 -6.929494 0.000000 0.000000 0.000000 -13.781674 2.869543 -2.891652 -39.510773 -1.467631 -3.592185 8.424811 -19.895253 -0.766511 0.000000 0.000000 0.000000 11.561167 1.282352 -0.580575 42.855514 1.596262 -2.962756 -7.208787 13.267431 -0.283692 0.000000 0.000000 0.000000 
